<svg width="217" height="295" viewBox="0 0 217 295" fill="none" xmlns="http://www.w3.org/2000/svg">
<g filter="url(#filter0_d_7_2131)">
<path d="M170.432 199.312C170.822 200.781 171.203 202.252 171.603 203.718C172.891 208.441 174.027 213.211 175.638 217.834C175.855 218.458 175.917 219.094 175.898 219.748C175.872 220.628 175.827 221.509 175.828 222.389C175.831 223.894 176.061 225.337 176.888 226.628C177.499 227.58 177.716 228.661 177.746 229.797C177.76 230.303 177.813 230.814 177.895 231.314C178.716 236.339 179.352 241.392 179.924 246.453C180.179 248.712 180.338 250.982 180.086 253.248C179.846 255.4 180.608 257.143 181.883 258.728C182.026 258.906 182.163 259.092 182.323 259.251C182.769 259.696 182.938 260.241 182.96 260.874C182.981 261.521 183.075 262.166 183.112 262.813C183.161 263.636 183.39 264.362 184.055 264.872C184.509 265.221 184.57 265.659 184.474 266.222C184.223 267.688 183.888 269.128 183.382 270.519C182.842 272.007 182.48 273.533 182.405 275.117C182.366 275.946 182.397 276.786 182.485 277.611C182.58 278.506 183.415 279.259 184.483 279.358C185.501 279.452 186.541 279.503 187.553 279.39C189.562 279.164 191.562 279.266 193.563 279.383C194.222 279.422 194.909 279.551 195.516 279.808C196.888 280.39 198.308 280.756 199.754 281.044C201.241 281.339 202.725 281.656 204.214 281.941C205.215 282.133 206.249 281.997 207.068 281.457C209.363 279.946 209.624 277.441 207.654 275.525C207.002 274.891 206.165 274.509 205.296 274.259C204.566 274.048 203.836 273.839 203.096 273.672C201.727 273.363 200.459 272.846 199.347 271.939C198.857 271.539 198.307 271.218 197.827 270.809C197.347 270.4 196.892 269.95 196.475 269.472C195.844 268.751 195.142 267.983 194.984 267.038C194.804 265.965 194.954 264.832 194.974 263.724C194.982 263.247 195.262 262.962 195.67 262.803C196.171 262.608 196.675 262.421 197.179 262.236C198.424 261.78 198.954 260.926 198.756 259.578C198.682 259.08 198.53 258.583 198.338 258.119C198.075 257.485 198.031 256.88 198.288 256.237C198.939 254.607 198.87 252.989 198.232 251.367C197.838 250.365 197.663 249.329 197.918 248.239C198.001 247.887 197.986 247.498 197.955 247.132C197.727 244.453 197.641 241.772 197.685 239.08C197.709 237.602 197.558 236.12 197.441 234.643C197.311 232.981 197.154 231.325 197.149 229.652C197.142 227.923 197.3 226.223 197.751 224.562C198.287 222.591 198.316 220.633 197.763 218.664C197.488 217.687 197.266 216.693 196.965 215.724C196.697 214.864 196.567 213.998 196.79 213.126C197.103 211.907 196.9 210.742 196.611 209.563C196.148 207.678 195.631 205.802 195.291 203.892C194.385 198.807 192.82 193.942 190.951 189.171C190.195 187.241 189.355 185.344 188.647 183.395C187.955 181.491 187.383 179.539 186.756 177.608C186.549 176.967 186.577 176.317 186.777 175.693C187.248 174.219 187.363 172.703 187.377 171.165C187.381 170.704 187.434 170.24 187.506 169.783C187.882 167.405 188.155 165.017 188.388 162.617C188.561 160.831 188.647 159.022 189.075 157.254C189.616 155.023 189.259 152.827 188.506 150.709C188.248 149.986 188.148 149.335 188.306 148.561C188.585 147.195 188.489 145.799 188.407 144.406C188.322 142.975 188.321 141.539 188.292 140.105C188.282 139.564 188.482 139.101 188.884 138.758C189.745 138.024 190.598 137.278 191.495 136.593C191.844 136.327 192.287 136.148 192.713 136.043C194.549 135.593 196.278 134.838 197.989 134.049C200.12 133.067 202.369 132.466 204.568 131.705C204.853 131.607 205.182 131.641 205.491 131.619C205.846 131.595 206.226 131.655 206.551 131.543C208.171 130.983 209.714 130.265 210.893 128.912C211.071 128.707 211.254 128.488 211.364 128.242C212.388 125.955 212.682 123.628 211.635 121.262C211.319 120.549 210.985 119.832 210.562 119.186C209.786 118 208.932 116.87 208.121 115.71C207.754 115.186 207.387 114.661 207.058 114.112C206.065 112.451 204.923 110.916 203.558 109.57C203.172 109.19 202.765 108.812 202.312 108.532C200.862 107.64 199.997 106.26 199.277 104.748C199.198 104.583 199.164 104.396 199.095 104.226C198.7 103.249 198.027 102.93 197.058 103.283C196.769 103.388 196.502 103.559 196.166 103.73C195.942 103.519 195.693 103.332 195.499 103.094C194.864 102.318 194.207 101.556 193.636 100.731C192.613 99.2539 191.352 98.0057 190.116 96.7441C189.169 95.7768 188.101 94.9011 186.686 94.7305C186.643 94.7256 186.596 94.7142 186.558 94.6921C184.841 93.6878 182.912 93.5691 180.933 93.2948C180.789 92.9294 180.608 92.5641 180.498 92.1767C180.046 90.5818 179.214 89.2334 178.098 88.0614C177.942 87.8965 177.777 87.7366 177.641 87.5553C176.206 85.6533 174.206 84.848 172.014 84.3896C169.998 83.9674 167.962 83.8259 165.908 83.7534C162.729 83.6404 160.223 84.9873 158.115 87.3556C156.896 88.7259 155.81 90.1809 155.015 91.8676C154.62 92.707 154.284 93.5599 154.091 94.4697C153.756 96.0547 153.446 97.6447 153.099 99.2269C152.952 99.9028 152.801 100.591 152.541 101.225C152.101 102.295 152.337 103.211 152.949 104.093C153.348 104.669 153.844 105.131 154.48 105.396C155.303 105.738 156.136 106.052 157.063 106.417C157.109 106.593 157.215 106.848 157.239 107.111C157.308 107.892 157.614 108.54 158.186 109.039C159.059 109.799 159.057 110.801 158.938 111.843C158.89 112.264 158.636 112.514 158.276 112.634C157.895 112.761 157.503 112.862 157.11 112.938C155.925 113.167 155.068 113.827 154.608 114.994C154.483 115.312 154.31 115.553 154.031 115.727C153.124 116.295 152.666 117.216 152.452 118.217C152.243 119.192 151.708 119.661 150.833 119.795C150.175 119.896 149.504 120.015 148.845 119.986C147.447 119.924 146.201 120.357 145.048 121.115C144.257 121.635 143.477 122.186 142.756 122.804C142.027 123.429 141.243 123.945 140.428 124.429C138.685 125.466 136.95 126.517 135.223 127.579C134.764 127.862 134.329 128.193 133.905 128.531C133.33 128.991 132.899 129.55 132.678 130.304C132.337 131.464 131.596 132.3 130.567 132.887C129.353 133.58 128.203 134.374 127.199 135.387C126.851 135.738 126.424 136.011 126.012 136.285C125.791 136.431 125.526 136.583 125.276 136.594C124.298 136.634 123.319 136.628 122.339 136.615C122.171 136.613 121.998 136.515 121.838 136.436C120.226 135.65 118.624 134.839 117.002 134.075C115.656 133.442 114.392 132.674 113.173 131.814C112.179 131.114 111.197 130.375 109.964 130.166C109.622 130.108 109.389 129.862 109.31 129.539C109.147 128.869 108.924 128.186 108.925 127.509C108.928 125.284 109.022 123.06 109.076 120.836C109.089 120.278 109.279 119.868 109.798 119.618C110.072 119.486 110.342 119.28 110.532 119.039C111.166 118.233 110.96 117.299 110.052 116.861C109.736 116.709 109.372 116.594 109.027 116.589C107.936 116.572 106.923 116.239 105.906 115.888C104.67 115.461 103.392 115.285 102.092 115.275C101.456 115.27 100.855 115.42 100.301 115.756C99.6219 116.168 99.2089 116.776 99.3454 117.592C99.5423 118.764 99.4911 119.885 99.0739 120.996C98.9964 121.203 99.0106 121.453 99.0063 121.683C98.99 122.609 98.9921 123.536 98.9701 124.462C98.9395 125.713 99.2473 126.831 100.016 127.82C100.317 128.208 100.562 128.67 100.725 129.139C101.019 129.986 101.476 130.702 102.043 131.371C102.422 131.819 102.751 132.321 103.051 132.831C103.576 133.723 103.777 134.706 103.754 135.755C103.728 136.91 103.65 138.067 103.878 139.22C104.033 140.003 104.287 140.73 104.658 141.425C106.26 144.435 108.433 146.918 111.124 148.904C113.149 150.398 115.373 151.447 117.85 151.805C118.774 151.937 119.716 151.935 120.651 151.977C121.278 152.005 121.892 152.065 122.475 152.343C123.368 152.768 124.291 152.773 125.217 152.471C125.946 152.232 126.683 152.144 127.449 152.116C128.008 152.095 128.608 151.925 129.103 151.653C129.886 151.222 130.616 150.678 131.329 150.125C131.768 149.784 132.204 149.472 132.753 149.411C134.292 149.242 135.494 148.378 136.657 147.416C137.285 146.896 137.906 146.361 138.578 145.911C138.98 145.641 139.464 145.478 139.932 145.352C140.324 145.245 140.749 145.314 141.07 145.61C142.203 146.658 143.047 147.873 143.051 149.541C143.052 149.726 143.072 149.925 143.015 150.093C142.653 151.157 142.869 152.204 143.09 153.245C143.341 154.429 143.456 155.624 143.416 156.834C143.322 159.72 143.716 162.561 144.081 165.411C144.523 168.852 145.113 172.278 145.142 175.767C145.151 176.879 145.223 177.989 145.257 179.1C145.312 180.83 145.064 182.523 144.619 184.184C144.278 185.459 144.168 186.731 144.431 188.032C144.504 188.394 144.527 188.767 144.601 189.129C144.744 189.824 144.733 190.508 144.533 191.19C144.102 192.652 143.698 194.124 143.24 195.577C142.584 197.658 142.09 199.768 142.071 201.969C142.065 202.736 141.878 203.405 141.441 204.045C140.611 205.263 139.973 206.581 139.662 208.062C139.56 208.546 139.295 209.007 139.049 209.443C138.475 210.46 138.17 211.55 137.984 212.712C137.476 215.892 137.48 219.077 137.712 222.274C137.752 222.828 137.75 223.386 137.739 223.942C137.72 224.95 137.44 225.882 136.76 226.612C135.933 227.501 135.632 228.586 135.497 229.757C135.465 230.033 135.448 230.312 135.432 230.589C135.397 231.167 135.224 231.694 134.801 232.078C134.202 232.62 133.865 233.306 133.656 234.08C133.619 234.213 133.57 234.347 133.504 234.466C132.334 236.558 131.641 238.875 130.632 241.044C129.933 242.547 129.282 244.074 128.657 245.612C128.239 246.642 128.003 247.73 128.001 248.859C127.997 250.805 128.01 252.75 127.971 254.695C127.961 255.191 127.851 255.715 127.665 256.171C127.194 257.322 126.672 258.453 126.132 259.571C125.826 260.205 125.625 260.844 125.595 261.559C125.558 262.456 125.919 263.09 126.682 263.452C127.161 263.68 127.677 263.823 128.242 264.029C128.23 264.178 128.26 264.371 128.193 264.518C127.244 266.615 126.273 268.703 125.327 270.802C124.896 271.757 124.257 272.499 123.397 273.051C122.941 273.343 122.502 273.663 122.055 273.969C121.073 274.64 120.5 275.564 120.251 276.774C119.859 278.677 120.009 280.449 121.053 282.108C121.507 282.831 122.049 283.406 122.841 283.703C123.503 283.952 124.108 284.392 124.875 284.273C125.446 284.184 126.03 284.182 126.599 284.083C128.105 283.824 129.543 283.344 130.849 282.501C131.486 282.091 131.858 281.455 132.104 280.745C132.255 280.312 132.385 279.857 132.431 279.401C132.562 278.117 133.048 276.98 133.747 275.945C134.31 275.112 134.921 274.307 135.573 273.547C136.008 273.04 136.309 272.502 136.395 271.839C136.508 270.968 136.583 270.09 136.71 269.221C136.912 267.85 137.099 266.472 137.378 265.116C137.563 264.218 137.716 264.117 138.564 264.119C139.524 264.12 140.408 263.818 141.303 263.532C141.977 263.316 142.508 262.889 142.8 262.229C143.132 261.474 143.436 260.697 143.66 259.902C143.837 259.269 144.059 258.686 144.423 258.143C145.188 257.001 145.911 255.828 146.668 254.682C147.307 253.717 147.802 252.684 148.093 251.553C148.496 249.988 148.987 248.449 149.13 246.814C149.224 245.751 149.537 244.751 150.312 243.929C150.664 243.554 150.867 242.976 151.014 242.452C151.391 241.109 152.082 240.031 153.171 239.195C154.107 238.476 154.88 237.572 155.621 236.637C156.742 235.223 157.36 233.589 157.444 231.795C157.567 229.166 158.158 226.676 159.063 224.23C160.39 220.644 159.754 221.812 161.985 218.491C163.084 216.857 164.157 215.197 165.125 213.478C166.754 210.586 168.02 207.52 168.854 204.273C169.234 202.794 169.635 201.322 170.031 199.848C170.078 199.675 170.15 199.509 170.211 199.339C170.282 199.333 170.357 199.322 170.432 199.312ZM196.531 121.025C196.045 121.212 195.68 120.854 195.268 120.728C194.497 120.491 193.75 120.249 192.929 120.63C192.594 120.786 192.147 120.723 191.756 120.693C191.269 120.656 190.789 120.52 190.302 120.483C189.658 120.435 189.064 120.244 188.572 119.826C187.799 119.169 186.919 118.961 185.952 118.998C185.41 119.02 184.901 118.901 184.402 118.656C182.431 117.691 180.35 117.295 178.171 117.391C177.595 117.416 177.005 117.401 176.44 117.297C175.6 117.143 175.354 116.459 175.908 115.786C176.662 114.87 177.042 113.804 177.266 112.655C177.462 111.651 177.754 110.687 178.17 109.753C178.81 108.312 179.26 106.815 179.266 105.201C179.268 104.743 179.357 104.279 179.453 103.828C179.551 103.36 179.813 102.997 180.218 102.736C180.861 102.322 181.479 101.868 182.122 101.455C182.414 101.267 182.623 101.403 182.741 101.811C182.605 101.884 182.457 101.96 182.312 102.042C181.673 102.4 181.604 102.606 181.869 103.236C182.208 104.039 182.793 104.587 183.521 104.984C184.586 105.565 185.653 106.143 186.725 106.707C188.275 107.524 189.681 108.574 191.111 109.529C191.106 109.731 191.139 109.881 191.094 109.999C190.811 110.736 191.047 111.361 191.462 111.947C191.699 112.282 191.961 112.599 192.195 112.938C192.583 113.501 193.008 114.046 193.325 114.651C193.883 115.715 194.503 116.719 195.33 117.581C195.94 118.216 196.327 118.999 196.606 119.838C196.738 120.234 196.835 120.644 196.531 121.025Z" fill="#2E3637"/>
<path d="M73.8551 285.927C89.5659 195.258 105.277 100.324 120.987 9.65435C121.437 8.27332 122.451 7.36283 123.337 7.40405C124.519 7.45807 125.679 9.20941 125.185 11.3787C109.512 101.831 93.8391 196.548 78.1659 287L73.8551 285.927Z" fill="#2E3637"/>
<path d="M3.99994 64.053C41.0459 100.334 78.0912 52.9522 115.137 74.3549C118.555 53.4803 121.973 33.1914 125.391 13.6076C88.3455 -21.7858 51.3002 25.6715 14.2542 3.53105C10.8361 24.3374 7.41803 44.5517 3.99994 64.053Z" fill="#872A2A"/>
<mask id="mask0_7_2131" style="mask-type:luminance" maskUnits="userSpaceOnUse" x="4" y="0" width="122" height="79">
<path d="M3.99994 64.053C41.0459 100.334 78.0912 52.9522 115.137 74.3549C118.555 53.4803 121.973 33.1914 125.391 13.6076C88.3455 -21.7858 51.3002 25.6715 14.2542 3.53105C10.8361 24.3374 7.41803 44.5517 3.99994 64.053Z" fill="white"/>
</mask>
<g mask="url(#mask0_7_2131)">
<path d="M12.3522 11.2734C50.0379 36.2655 87.7236 -13.4656 125.409 22.5661C125.601 21.4687 125.792 20.3734 125.984 19.2802C88.2986 -17.6279 50.6129 32.0435 12.9272 7.80698C12.7353 8.96482 12.5434 10.1198 12.3522 11.2734Z" fill="#FAF1EB"/>
<path d="M10.9911 19.4374C48.6768 46.2519 86.3624 -3.58941 124.048 30.401C124.24 29.2929 124.431 28.1877 124.623 27.0838C86.9368 -7.76234 49.2511 42.0377 11.5654 15.9987C11.3742 17.1473 11.1823 18.293 10.9911 19.4374Z" fill="#FAF1EB"/>
<path d="M9.62997 27.5345C47.3157 56.2183 85.0014 6.31375 122.687 38.3083C122.879 37.1903 123.07 36.0744 123.262 34.9606C85.5764 2.12874 47.8907 52.0119 10.205 24.1235C10.0131 25.2629 9.82117 26.4001 9.62997 27.5345Z" fill="#FAF1EB"/>
<path d="M8.26882 35.5632C45.9545 66.1626 83.6402 16.2417 121.326 46.2873C121.518 45.1593 121.709 44.0335 121.901 42.9097C84.2152 12.0467 46.5295 61.9662 8.84383 32.1814C8.65192 33.3115 8.46001 34.4381 8.26882 35.5632Z" fill="#FAF1EB"/>
<path d="M6.907 43.5224C44.5927 76.0835 82.2784 26.1924 119.964 54.3368C120.156 53.1995 120.347 52.0637 120.539 50.9301C82.8534 21.989 45.1677 71.8977 7.482 40.1711C7.2908 41.2899 7.0989 42.4072 6.907 43.5224Z" fill="#FAF1EB"/>
<path d="M5.54588 51.4092C43.2316 85.9796 80.9173 36.1646 118.603 62.4524C118.795 61.3052 118.986 60.1602 119.178 59.0173C81.4923 31.9512 43.8066 81.8038 6.12091 48.0878C5.929 49.1973 5.73779 50.3047 5.54588 51.4092Z" fill="#FAF1EB"/>
<path d="M4.18475 59.2226C41.8704 95.8479 79.5561 46.1566 117.242 70.6348C117.434 69.4783 117.625 68.324 117.817 67.1719C80.1311 41.9346 42.4454 91.6842 4.75975 55.9325C4.56784 57.0321 4.37665 58.1288 4.18475 59.2226Z" fill="#FAF1EB"/>
</g>
<mask id="mask1_7_2131" style="mask-type:luminance" maskUnits="userSpaceOnUse" x="4" y="0" width="122" height="79">
<path d="M3.99994 64.053C41.0459 100.334 78.0912 52.9522 115.137 74.3549C118.555 53.4803 121.973 33.1914 125.391 13.6076C88.3455 -21.7858 51.3002 25.6715 14.2542 3.53105C10.8361 24.3374 7.41803 44.5517 3.99994 64.053Z" fill="white"/>
</mask>
<g mask="url(#mask1_7_2131)">
<path d="M65.839 36.4709C84.2899 31.6775 102.741 27.1726 121.191 41.7896C122.779 32.4316 124.367 23.2151 125.955 14.1528C107.504 -3.8965 89.0534 -1.20127 70.6033 3.4031C69.0154 14.4158 67.4276 25.4426 65.839 36.4709Z" fill="#364456"/>
<path d="M122.355 12.9531C122.156 13.1116 121.957 13.2722 121.758 13.435C121.414 13.2068 121.07 12.9858 120.726 12.7711C120.931 13.1834 121.137 13.5977 121.343 14.0143C121.232 14.2829 121.121 14.5516 121.01 14.8217C121.337 14.9091 121.662 15.0029 121.988 15.1024C122.264 15.4976 122.539 15.8971 122.815 16.3008C122.811 15.9404 122.807 15.5801 122.803 15.2197C123.084 15.2069 123.365 15.1991 123.647 15.1956C123.318 14.8522 122.99 14.5153 122.661 14.1848C122.558 13.7733 122.457 13.3632 122.355 12.9531Z" fill="#FAF1EB"/>
<path d="M117.008 9.01111C116.809 9.20799 116.61 9.40701 116.411 9.60815C116.067 9.44681 115.723 9.29115 115.379 9.14189C115.584 9.51504 115.79 9.89033 115.996 10.2677C115.885 10.557 115.774 10.8477 115.663 11.1384C115.99 11.164 116.315 11.1953 116.641 11.2316C116.917 11.5734 117.192 11.9189 117.468 12.2686C117.464 11.9089 117.46 11.5493 117.456 11.1903C117.737 11.1221 118.018 11.0588 118.3 10.9991C117.971 10.7212 117.643 10.4497 117.314 10.1832C117.211 9.79153 117.11 9.40061 117.008 9.01111Z" fill="#FAF1EB"/>
<path d="M111.661 6.05994C111.462 6.29165 111.263 6.52549 111.064 6.76147C110.72 6.65983 110.376 6.56316 110.032 6.47218C110.237 6.81051 110.443 7.15026 110.649 7.49214C110.538 7.80061 110.427 8.10979 110.316 8.41969C110.642 8.38984 110.968 8.36425 111.294 8.34364C111.57 8.63718 111.846 8.93429 112.121 9.23494C112.117 8.876 112.113 8.51706 112.109 8.15884C112.39 8.04085 112.671 7.92712 112.952 7.81624C112.624 7.59804 112.296 7.38481 111.967 7.17655C111.865 6.80411 111.763 6.43167 111.661 6.05994Z" fill="#FAF1EB"/>
<path d="M106.314 3.99805C106.115 4.26103 105.916 4.52615 105.717 4.79269C105.373 4.74435 105.029 4.70029 104.685 4.66119C104.89 4.96825 105.096 5.27743 105.302 5.58804C105.191 5.91357 105.08 6.23981 104.969 6.56677C105.295 6.48716 105.621 6.41182 105.947 6.34074C106.223 6.59164 106.498 6.84539 106.774 7.10269C106.769 6.74446 106.766 6.38623 106.762 6.028C107.043 5.86595 107.324 5.70673 107.605 5.55108C107.277 5.38547 106.949 5.22483 106.619 5.06847C106.518 4.71024 106.416 4.35414 106.314 3.99805Z" fill="#FAF1EB"/>
<path d="M100.967 2.72302C100.768 3.01373 100.569 3.30585 100.37 3.5994C100.026 3.59727 99.6823 3.5994 99.3383 3.6058C99.5437 3.88584 99.7491 4.16731 99.9553 4.45019C99.8444 4.79065 99.7335 5.13182 99.6226 5.47299C99.9489 5.35003 100.274 5.23062 100.601 5.11547C100.876 5.3287 101.151 5.54478 101.427 5.76298C101.423 5.40547 101.419 5.04795 101.415 4.69043C101.697 4.48857 101.977 4.29027 102.259 4.09481C101.931 3.97611 101.602 3.86168 101.273 3.7508C101.171 3.4075 101.069 3.0649 100.967 2.72302Z" fill="#FAF1EB"/>
<path d="M95.6203 2.13367C95.4213 2.44783 95.2223 2.76341 95.0233 3.0797C94.6792 3.11808 94.3352 3.15931 93.9912 3.2048C94.1966 3.46138 94.4021 3.71939 94.6082 3.97882C94.4973 4.33208 94.3864 4.68604 94.2755 5.04C94.6018 4.88008 94.9273 4.723 95.2535 4.56876C95.5293 4.7493 95.8051 4.93268 96.0802 5.11819C96.0759 4.76138 96.0723 4.40386 96.0681 4.04706C96.3495 3.81179 96.6303 3.57866 96.9118 3.34837C96.5834 3.27019 96.255 3.19556 95.9259 3.12448C95.8236 2.79397 95.7219 2.46346 95.6203 2.13367Z" fill="#FAF1EB"/>
<path d="M89.8005 2.15149C89.6015 2.48697 89.4025 2.82388 89.2035 3.16149C88.8595 3.23612 88.5154 3.31288 88.1714 3.3932C88.3768 3.62918 88.5822 3.86657 88.7884 4.10468C88.6775 4.46931 88.5666 4.83464 88.4557 5.19998C88.782 5.00665 89.1075 4.81545 89.4338 4.6271C89.7095 4.77849 89.9846 4.93202 90.2604 5.08768C90.2561 4.73087 90.2526 4.37406 90.2483 4.01797C90.5298 3.75214 90.8105 3.48773 91.092 3.22546C90.7636 3.18424 90.4352 3.14585 90.1061 3.11032C90.0045 2.78976 89.9021 2.47062 89.8005 2.15149Z" fill="#FAF1EB"/>
<path d="M84.4534 2.66467C84.2544 3.01579 84.0554 3.36833 83.8564 3.72088C83.5123 3.8218 83.1683 3.92487 82.8243 4.02935C83.0297 4.2504 83.2351 4.47216 83.4413 4.69463C83.3304 5.06778 83.2195 5.44094 83.1086 5.8148C83.4349 5.59731 83.7604 5.38123 84.0866 5.168C84.3624 5.29807 84.6382 5.43027 84.9133 5.56319C84.909 5.20709 84.9054 4.85029 84.9012 4.49419C85.1826 4.20562 85.4634 3.91847 85.7449 3.63274C85.4165 3.61924 85.0881 3.60715 84.759 3.59791C84.6574 3.28731 84.5557 2.97599 84.4534 2.66467Z" fill="#FAF1EB"/>
<path d="M78.9343 3.58228C78.7353 3.94548 78.5363 4.3101 78.3372 4.67473C77.9932 4.79556 77.6492 4.91852 77.3052 5.04291C77.5106 5.25258 77.716 5.46297 77.9221 5.67336C77.8113 6.05291 77.7004 6.43246 77.5895 6.81201C77.9158 6.57603 78.2413 6.34148 78.5675 6.10835C78.8433 6.22207 79.1191 6.3365 79.3942 6.45236C79.3899 6.09626 79.3856 5.74017 79.3821 5.38408C79.6635 5.07773 79.9443 4.7721 80.2257 4.4686C79.8974 4.47642 79.569 4.48637 79.2399 4.49703C79.1376 4.19211 79.0359 3.8872 78.9343 3.58228Z" fill="#FAF1EB"/>
<path d="M73.5872 4.74219C73.3881 5.11392 73.1891 5.48565 72.9901 5.85738C72.6461 5.99172 72.3021 6.12677 71.9581 6.26252C72.1635 6.46509 72.3689 6.66766 72.575 6.87094C72.4642 7.25476 72.3533 7.63786 72.2424 8.02167C72.5686 7.77433 72.8942 7.52769 73.2204 7.28176C73.4962 7.38483 73.7712 7.4886 74.047 7.59308C74.0428 7.23699 74.0392 6.8816 74.0349 6.52551C74.3164 6.20708 74.5972 5.89008 74.8786 5.57308C74.5503 5.59582 74.2219 5.61927 73.8928 5.64415C73.7911 5.34421 73.6888 5.04284 73.5872 4.74219Z" fill="#FAF1EB"/>
<path d="M121.414 18.4714C121.215 18.637 121.016 18.8041 120.817 18.9739C120.473 18.7579 120.129 18.5489 119.785 18.3463C119.99 18.7515 120.196 19.1587 120.402 19.5681C120.291 19.8404 120.18 20.1133 120.069 20.3869C120.396 20.463 120.721 20.5454 121.047 20.6336C121.323 21.0188 121.599 21.4083 121.874 21.8021C121.87 21.4417 121.866 21.0821 121.862 20.7217C122.143 20.699 122.424 20.6805 122.706 20.667C122.377 20.3358 122.049 20.0109 121.72 19.6918C121.618 19.2845 121.516 18.8773 121.414 18.4714Z" fill="#FAF1EB"/>
<path d="M116.068 14.7108C115.869 14.9141 115.67 15.1195 115.471 15.3271C115.127 15.1764 114.783 15.0321 114.439 14.8928C114.644 15.2595 114.849 15.6284 115.056 15.9994C114.945 16.2923 114.834 16.5865 114.723 16.8808C115.049 16.8964 115.375 16.917 115.701 16.9426C115.977 17.2753 116.252 17.6122 116.528 17.9533C116.523 17.5937 116.52 17.2348 116.515 16.8751C116.797 16.7976 117.078 16.7251 117.359 16.6562C117.031 16.3897 116.702 16.1281 116.373 15.8729C116.271 15.4848 116.169 15.0975 116.068 14.7108Z" fill="#FAF1EB"/>
<path d="M110.721 11.9238C110.522 12.1619 110.323 12.4015 110.124 12.6424C109.779 12.5507 109.435 12.464 109.091 12.3823C109.297 12.7149 109.502 13.049 109.708 13.3852C109.598 13.6972 109.487 14.0092 109.376 14.322C109.702 14.2829 110.028 14.248 110.354 14.2182C110.63 14.5039 110.905 14.7932 111.18 15.086C111.176 14.7271 111.172 14.3689 111.168 14.0099C111.45 13.8841 111.731 13.7612 112.012 13.6425C111.684 13.4335 111.355 13.2302 111.026 13.0319C110.924 12.6623 110.822 12.2927 110.721 11.9238Z" fill="#FAF1EB"/>
<path d="M105.373 10.0076C105.174 10.2755 104.975 10.5456 104.776 10.8171C104.432 10.7773 104.088 10.7418 103.744 10.7112C103.95 11.0133 104.155 11.3168 104.361 11.6224C104.25 11.9508 104.14 12.2799 104.029 12.609C104.355 12.5216 104.68 12.4377 105.007 12.3581C105.282 12.6019 105.558 12.8485 105.833 13.0987C105.829 12.7405 105.825 12.383 105.821 12.0247C106.103 11.8549 106.383 11.6885 106.665 11.5258C106.336 11.3694 106.008 11.2166 105.679 11.0687C105.577 10.7148 105.475 10.3608 105.373 10.0076Z" fill="#FAF1EB"/>
<path d="M100.026 8.86047C99.8273 9.15544 99.6283 9.45183 99.4293 9.74965C99.0852 9.75533 98.7412 9.76457 98.3972 9.77879C98.6026 10.0546 98.8081 10.3318 99.0142 10.6104C98.9033 10.953 98.7924 11.2963 98.6815 11.6403C99.0078 11.5102 99.3333 11.3837 99.6595 11.2615C99.9353 11.4683 100.211 11.6787 100.486 11.8912C100.482 11.5337 100.478 11.1762 100.474 10.8186C100.756 10.6111 101.036 10.4057 101.318 10.2031C100.989 10.0922 100.661 9.98491 100.332 9.88185C100.23 9.54068 100.128 9.20093 100.026 8.86047Z" fill="#FAF1EB"/>
<path d="M94.6792 8.38135C94.4802 8.69906 94.2812 9.0182 94.0821 9.33875C93.7381 9.38353 93.3941 9.43115 93.0501 9.48233C93.2555 9.73536 93.4609 9.98982 93.6671 10.2457C93.5562 10.6011 93.4453 10.9565 93.3344 11.3126C93.6607 11.1462 93.9862 10.9835 94.3124 10.8236C94.5882 10.9991 94.864 11.1775 95.1391 11.3573C95.1348 11.0005 95.1312 10.643 95.127 10.2862C95.4084 10.0453 95.6892 9.80715 95.9707 9.57117C95.6423 9.49939 95.3139 9.43115 94.9848 9.36576C94.8832 9.0381 94.7816 8.70901 94.6792 8.38135Z" fill="#FAF1EB"/>
<path d="M88.8602 8.49866C88.6611 8.83698 88.4621 9.17673 88.2631 9.51719C87.9191 9.59679 87.5751 9.67853 87.2311 9.76383C87.4365 9.99696 87.6419 10.2308 87.848 10.4661C87.7371 10.8321 87.6263 11.1989 87.5154 11.5663C87.8416 11.368 88.1672 11.1726 88.4934 10.9792C88.7692 11.1271 89.0442 11.2763 89.32 11.427C89.3158 11.0702 89.3122 10.7141 89.3079 10.3573C89.5894 10.0865 89.8701 9.81855 90.1516 9.55202C89.8232 9.51577 89.4949 9.48307 89.1658 9.45251C89.0634 9.13408 88.9618 8.81637 88.8602 8.49866Z" fill="#FAF1EB"/>
<path d="M83.513 9.08508C83.314 9.43905 83.115 9.79301 82.9159 10.1484C82.5719 10.2529 82.2279 10.3602 81.8839 10.469C82.0893 10.6879 82.2947 10.9075 82.5009 11.1278C82.39 11.5024 82.2791 11.877 82.1682 12.2516C82.4944 12.0305 82.82 11.8109 83.1462 11.5934C83.422 11.7206 83.6971 11.8486 83.9728 11.9786C83.9686 11.6225 83.965 11.2664 83.9608 10.9096C84.2422 10.6175 84.523 10.3268 84.8045 10.0375C84.4761 10.0276 84.1477 10.0205 83.8186 10.0148C83.7163 9.70488 83.6146 9.39427 83.513 9.08508Z" fill="#FAF1EB"/>
<path d="M77.9932 10.0588C77.7941 10.4242 77.5951 10.7895 77.3961 11.1563C77.0521 11.2799 76.7081 11.4057 76.3641 11.5323C76.5695 11.7405 76.7749 11.9488 76.981 12.1584C76.8701 12.5387 76.7593 12.919 76.6484 13.2999C76.9746 13.0611 77.3002 12.8244 77.6264 12.5885C77.9022 12.7001 78.1773 12.8124 78.453 12.9261C78.4488 12.57 78.4452 12.2139 78.441 11.8578C78.7224 11.5486 79.0032 11.2408 79.2846 10.9345C78.9562 10.9459 78.6279 10.958 78.2988 10.9722C78.1972 10.6665 78.0948 10.3623 77.9932 10.0588Z" fill="#FAF1EB"/>
<path d="M72.6461 11.255C72.447 11.6274 72.248 12.0006 72.049 12.3738C71.705 12.5095 71.361 12.646 71.017 12.7839C71.2224 12.9857 71.4278 13.1876 71.6339 13.3902C71.523 13.774 71.4122 14.1585 71.3013 14.5423C71.6275 14.2935 71.9531 14.0448 72.2793 13.7974C72.5551 13.8991 72.8309 14.0014 73.1059 14.1045C73.1017 13.7484 73.0974 13.393 73.0938 13.0369C73.3753 12.7171 73.6561 12.3979 73.9375 12.0802C73.6092 12.1051 73.2808 12.1307 72.9517 12.157C72.8501 11.8549 72.7484 11.5549 72.6461 11.255Z" fill="#FAF1EB"/>
<path d="M120.532 23.6771C120.333 23.8491 120.134 24.0233 119.935 24.1995C119.591 23.9948 119.247 23.7973 118.903 23.6053C119.108 24.0034 119.314 24.4043 119.52 24.8073C119.409 25.083 119.298 25.3595 119.187 25.6367C119.514 25.7028 119.839 25.7739 120.165 25.8514C120.441 26.2274 120.716 26.6083 120.992 26.9929C120.988 26.6325 120.984 26.2729 120.98 25.9125C121.261 25.8805 121.542 25.8528 121.824 25.8293C121.495 25.5095 121.167 25.1953 120.838 24.8869C120.736 24.4831 120.634 24.0794 120.532 23.6771Z" fill="#FAF1EB"/>
<path d="M115.185 20.0841C114.986 20.2938 114.787 20.5049 114.588 20.7181C114.244 20.5774 113.9 20.443 113.556 20.3144C113.761 20.6755 113.967 21.038 114.173 21.4033C114.062 21.6997 113.951 21.9968 113.84 22.2939C114.166 22.2996 114.492 22.311 114.818 22.3273C115.094 22.6521 115.369 22.9805 115.645 23.3131C115.641 22.9542 115.637 22.5945 115.633 22.2356C115.914 22.1503 116.195 22.0686 116.476 21.9911C116.148 21.7345 115.82 21.4829 115.491 21.2377C115.389 20.8517 115.287 20.4672 115.185 20.0841Z" fill="#FAF1EB"/>
<path d="M109.839 17.4471C109.639 17.6902 109.44 17.9347 109.241 18.1814C108.897 18.0982 108.553 18.0207 108.209 17.9482C108.415 18.2752 108.62 18.6043 108.826 18.9355C108.716 19.2504 108.605 19.5652 108.494 19.8815C108.82 19.8339 109.146 19.7906 109.472 19.7522C109.748 20.0308 110.023 20.3123 110.298 20.598C110.294 20.2398 110.29 19.8808 110.286 19.5226C110.568 19.389 110.849 19.2589 111.13 19.1324C110.802 18.9327 110.473 18.7379 110.144 18.5481C110.042 18.1807 109.94 17.8139 109.839 17.4471Z" fill="#FAF1EB"/>
<path d="M104.491 15.6653C104.292 15.9382 104.093 16.2126 103.894 16.4891C103.55 16.4571 103.206 16.4301 102.862 16.4066C103.068 16.7044 103.273 17.003 103.479 17.3036C103.368 17.6348 103.258 17.966 103.147 18.298C103.473 18.2027 103.798 18.1118 104.125 18.025C104.4 18.2624 104.676 18.5027 104.951 18.7465C104.947 18.3882 104.943 18.0307 104.939 17.6725C105.221 17.4962 105.501 17.3228 105.783 17.1529C105.454 17.0044 105.126 16.8601 104.797 16.7201C104.695 16.3675 104.593 16.0164 104.491 15.6653Z" fill="#FAF1EB"/>
<path d="M99.1443 14.6354C98.9453 14.9346 98.7463 15.2346 98.5472 15.5366C98.2032 15.5494 97.8592 15.5658 97.5152 15.5857C97.7206 15.8572 97.926 16.1301 98.1322 16.4052C98.0213 16.7506 97.9104 17.0961 97.7995 17.4415C98.1258 17.305 98.4513 17.1721 98.7775 17.0428C99.0533 17.2446 99.3284 17.4486 99.6042 17.6554C99.5999 17.2979 99.5963 16.9404 99.5921 16.5836C99.8735 16.3697 100.154 16.1593 100.436 15.951C100.107 15.8465 99.779 15.7463 99.4499 15.6496C99.3476 15.3113 99.2459 14.973 99.1443 14.6354Z" fill="#FAF1EB"/>
<path d="M93.7972 14.2566C93.5981 14.5779 93.3991 14.9005 93.2001 15.2239C92.8561 15.2744 92.5121 15.3277 92.1681 15.3846C92.3735 15.6341 92.5789 15.8857 92.785 16.1373C92.6742 16.4941 92.5633 16.8516 92.4524 17.2098C92.7786 17.0385 93.1042 16.8701 93.4304 16.7045C93.7062 16.8758 93.982 17.0485 94.257 17.2241C94.2528 16.8672 94.2492 16.5104 94.2449 16.1529C94.5264 15.907 94.8072 15.6639 95.0886 15.423C94.7603 15.3569 94.4319 15.2943 94.1028 15.2353C94.0012 14.9091 93.8988 14.5828 93.7972 14.2566Z" fill="#FAF1EB"/>
<path d="M87.9781 14.4641C87.7791 14.8053 87.5801 15.1479 87.3811 15.4912C87.0371 15.575 86.6931 15.6618 86.349 15.7513C86.5545 15.9816 86.7599 16.2133 86.966 16.4457C86.8551 16.8132 86.7442 17.1814 86.6333 17.5503C86.9596 17.3477 87.2851 17.148 87.6114 16.9504C87.8871 17.094 88.1622 17.2397 88.438 17.3868C88.4337 17.03 88.4302 16.6739 88.4259 16.3171C88.7074 16.0427 88.9881 15.7698 89.2696 15.4997C88.9412 15.4684 88.6128 15.44 88.2837 15.4137C88.1814 15.0967 88.0798 14.7804 87.9781 14.4641Z" fill="#FAF1EB"/>
<path d="M82.631 15.1151C82.432 15.4712 82.233 15.8273 82.034 16.1848C81.69 16.2929 81.3459 16.403 81.0019 16.5153C81.2073 16.7321 81.4128 16.9496 81.6189 17.1678C81.508 17.5431 81.3971 17.9191 81.2862 18.2951C81.6125 18.0705 81.938 17.848 82.2643 17.627C82.54 17.7514 82.8151 17.8765 83.0909 18.0037C83.0866 17.6476 83.0831 17.2915 83.0788 16.9347C83.3603 16.6397 83.641 16.3455 83.9225 16.0533C83.5941 16.0476 83.2657 16.0434 82.9366 16.042C82.8343 15.7328 82.7326 15.4236 82.631 15.1151Z" fill="#FAF1EB"/>
<path d="M77.1111 16.1387C76.9121 16.5054 76.7131 16.8722 76.5141 17.2404C76.1701 17.3669 75.8261 17.4941 75.4821 17.6235C75.6875 17.8303 75.8929 18.0378 76.099 18.2454C75.9881 18.6264 75.8772 19.008 75.7664 19.389C76.0926 19.1481 76.4181 18.9085 76.7444 18.6704C77.0202 18.7799 77.2959 18.8901 77.571 19.0016C77.5667 18.6456 77.5632 18.2895 77.5589 17.9334C77.8404 17.622 78.1211 17.3121 78.4026 17.003C78.0742 17.0165 77.7458 17.0321 77.4168 17.0485C77.3151 16.745 77.2128 16.4415 77.1111 16.1387Z" fill="#FAF1EB"/>
<path d="M71.764 17.3655C71.565 17.7386 71.366 18.1125 71.167 18.4864C70.823 18.6235 70.479 18.7614 70.135 18.9C70.3404 19.1012 70.5458 19.3023 70.7519 19.5042C70.641 19.8887 70.5301 20.2732 70.4193 20.6578C70.7455 20.4076 71.071 20.1581 71.3973 19.9093C71.6731 20.0095 71.9488 20.1112 72.2239 20.2128C72.2196 19.8567 72.2154 19.5013 72.2118 19.1452C72.4933 18.824 72.774 18.5041 73.0555 18.1843C72.7271 18.2106 72.3988 18.2376 72.0697 18.2653C71.968 17.9654 71.8664 17.6654 71.764 17.3655Z" fill="#FAF1EB"/>
<path d="M119.592 29.2588C119.393 29.4379 119.194 29.6184 118.995 29.8018C118.651 29.6092 118.307 29.423 117.963 29.2424C118.168 29.6341 118.373 30.0278 118.58 30.4237C118.469 30.7031 118.358 30.9838 118.247 31.2646C118.573 31.3193 118.899 31.3797 119.225 31.4458C119.501 31.8126 119.776 32.1836 120.052 32.5589C120.047 32.1992 120.044 31.8389 120.039 31.4792C120.321 31.4373 120.602 31.3996 120.883 31.3662C120.555 31.0577 120.226 30.7549 119.897 30.4586C119.795 30.0584 119.693 29.6582 119.592 29.2588Z" fill="#FAF1EB"/>
<path d="M114.245 25.842C114.046 26.0574 113.847 26.2749 113.648 26.4945C113.304 26.3645 112.96 26.2408 112.616 26.1221C112.821 26.4768 113.026 26.8336 113.232 27.1918C113.122 27.4917 113.011 27.7917 112.9 28.093C113.226 28.0888 113.552 28.0902 113.878 28.0966C114.154 28.4129 114.429 28.7327 114.704 29.0568C114.7 28.6979 114.697 28.3383 114.692 27.9793C114.974 27.8848 115.255 27.7945 115.536 27.7078C115.208 27.4619 114.879 27.2209 114.55 26.985C114.448 26.6033 114.346 26.2223 114.245 25.842Z" fill="#FAF1EB"/>
<path d="M108.897 23.3629C108.698 23.6117 108.499 23.8619 108.3 24.1142C107.956 24.041 107.612 23.972 107.268 23.9088C107.474 24.2308 107.679 24.5542 107.885 24.879C107.774 25.1967 107.664 25.5151 107.553 25.8335C107.879 25.7767 108.204 25.7248 108.531 25.6779C108.806 25.9487 109.082 26.223 109.357 26.5002C109.353 26.142 109.349 25.7831 109.345 25.4249C109.627 25.2834 109.907 25.1455 110.189 25.0105C109.861 24.82 109.532 24.6352 109.203 24.4547C109.101 24.0907 108.999 23.7268 108.897 23.3629Z" fill="#FAF1EB"/>
<path d="M103.55 21.7203C103.351 21.9982 103.152 22.2776 102.953 22.5583C102.609 22.5349 102.265 22.5157 101.921 22.5008C102.127 22.7936 102.332 23.0879 102.538 23.3835C102.427 23.7169 102.316 24.0509 102.206 24.3857C102.532 24.2827 102.857 24.1839 103.184 24.0893C103.459 24.3203 103.735 24.5535 104.01 24.7901C104.006 24.4326 104.002 24.0744 103.998 23.7169C104.28 23.5335 104.56 23.3537 104.842 23.176C104.513 23.0353 104.185 22.8995 103.856 22.7673C103.754 22.4183 103.653 22.0693 103.55 21.7203Z" fill="#FAF1EB"/>
<path d="M98.2032 20.8127C98.0042 21.1162 97.8052 21.4205 97.6062 21.7268C97.2622 21.7467 96.9181 21.7702 96.5741 21.7972C96.7795 22.0644 96.985 22.3338 97.1911 22.6039C97.0802 22.9515 96.9693 23.299 96.8584 23.6473C97.1847 23.5044 97.5102 23.3651 97.8365 23.2286C98.1122 23.4248 98.3873 23.6231 98.6631 23.8236C98.6588 23.466 98.6553 23.1092 98.651 22.7517C98.9325 22.5321 99.2132 22.3153 99.4947 22.1007C99.1663 22.004 98.8379 21.9102 98.5089 21.8206C98.4072 21.4844 98.3056 21.1482 98.2032 20.8127Z" fill="#FAF1EB"/>
<path d="M92.8568 20.5377C92.6578 20.8625 92.4588 21.1888 92.2598 21.5157C91.9158 21.5719 91.5718 21.6316 91.2277 21.6941C91.4332 21.9408 91.6386 22.1881 91.8447 22.4369C91.7338 22.7958 91.6229 23.1555 91.512 23.5151C91.8383 23.3382 92.1638 23.164 92.4901 22.9934C92.7658 23.1597 93.0409 23.3282 93.3167 23.4988C93.3124 23.142 93.3089 22.7852 93.3046 22.4284C93.5861 22.1775 93.8668 21.9294 94.1483 21.6828C93.8199 21.6231 93.4916 21.5669 93.1625 21.5129C93.0601 21.1867 92.9585 20.8618 92.8568 20.5377Z" fill="#FAF1EB"/>
<path d="M87.037 20.8376C86.838 21.1817 86.639 21.5271 86.44 21.8725C86.096 21.9614 85.752 22.0523 85.408 22.1462C85.6134 22.3736 85.8188 22.6025 86.0249 22.8321C85.914 23.2017 85.8031 23.5713 85.6923 23.9409C86.0185 23.734 86.344 23.5293 86.6703 23.3275C86.9461 23.4675 87.2211 23.6089 87.4969 23.7525C87.4926 23.3957 87.4891 23.0396 87.4848 22.6828C87.7663 22.4042 88.0471 22.1277 88.3285 21.8526C88.0001 21.8263 87.6718 21.8029 87.3427 21.7815C87.241 21.4674 87.1387 21.1525 87.037 20.8376Z" fill="#FAF1EB"/>
<path d="M81.6899 21.5555C81.4909 21.9138 81.2919 22.272 81.0929 22.6309C80.7489 22.7425 80.4049 22.8563 80.0608 22.9721C80.2663 23.1868 80.4717 23.4021 80.6778 23.6182C80.5669 23.9949 80.456 24.3716 80.3451 24.7483C80.6714 24.5209 80.9969 24.2948 81.3232 24.0702C81.5989 24.1918 81.874 24.314 82.1498 24.4377C82.1455 24.0816 82.142 23.7255 82.1377 23.3694C82.4192 23.0709 82.6999 22.7745 82.9814 22.4788C82.653 22.4767 82.3247 22.4767 81.9956 22.4781C81.8939 22.1711 81.7916 21.8633 81.6899 21.5555Z" fill="#FAF1EB"/>
<path d="M76.1708 22.6287C75.9718 22.9968 75.7728 23.365 75.5738 23.7346C75.2298 23.8633 74.8858 23.9933 74.5417 24.1241C74.7472 24.3295 74.9526 24.5357 75.1587 24.7418C75.0478 25.1235 74.9369 25.5059 74.826 25.8875C75.1523 25.6445 75.4778 25.4028 75.8041 25.1626C76.0799 25.2699 76.3556 25.3786 76.6307 25.4874C76.6264 25.1313 76.6229 24.7752 76.6186 24.4198C76.9001 24.1064 77.1808 23.7943 77.4623 23.483C77.1339 23.4994 76.8055 23.5171 76.4764 23.5363C76.3741 23.2335 76.2725 22.9314 76.1708 22.6287Z" fill="#FAF1EB"/>
<path d="M70.8237 23.8861C70.6247 24.26 70.4257 24.6345 70.2267 25.0091C69.8826 25.1477 69.5386 25.2863 69.1946 25.4263C69.4 25.6268 69.6054 25.8272 69.8116 26.0284C69.7007 26.4129 69.5898 26.7981 69.4789 27.1827C69.8052 26.9317 70.1307 26.6808 70.4569 26.4307C70.7327 26.5302 71.0085 26.6304 71.2836 26.7306C71.2793 26.3745 71.275 26.0191 71.2715 25.663C71.5529 25.3411 71.8337 25.0191 72.1152 24.6985C71.7868 24.7262 71.4584 24.7547 71.1293 24.7845C71.027 24.4853 70.9253 24.1853 70.8237 23.8861Z" fill="#FAF1EB"/>
<path d="M118.651 34.874C118.452 35.0595 118.253 35.2472 118.054 35.437C117.71 35.2557 117.366 35.0809 117.022 34.9117C117.227 35.2962 117.432 35.6829 117.639 36.0724C117.528 36.356 117.417 36.6396 117.306 36.9246C117.632 36.9687 117.958 37.0184 118.284 37.0731C118.56 37.4307 118.835 37.7924 119.111 38.1578C119.106 37.7981 119.103 37.4385 119.098 37.0788C119.38 37.0269 119.661 36.98 119.942 36.9367C119.614 36.6396 119.285 36.3482 118.956 36.0631C118.855 35.6658 118.752 35.2699 118.651 34.874Z" fill="#FAF1EB"/>
<path d="M113.304 31.6293C113.104 31.851 112.905 32.0742 112.706 32.3002C112.362 32.1808 112.018 32.0671 111.674 31.9584C111.88 32.3066 112.085 32.657 112.291 33.0096C112.181 33.3124 112.07 33.6166 111.959 33.9208C112.285 33.9073 112.611 33.8988 112.937 33.8952C113.213 34.203 113.488 34.5143 113.763 34.8299C113.759 34.4709 113.756 34.112 113.751 33.753C114.033 33.65 114.314 33.5505 114.595 33.4552C114.267 33.2193 113.938 32.989 113.609 32.7637C113.508 32.3841 113.406 32.0067 113.304 31.6293Z" fill="#FAF1EB"/>
<path d="M107.957 29.3042C107.758 29.5579 107.559 29.8138 107.36 30.0711C107.016 30.0072 106.672 29.9474 106.328 29.8934C106.533 30.2097 106.739 30.5274 106.945 30.8473C106.834 31.1678 106.723 31.4891 106.612 31.8111C106.939 31.7457 107.264 31.6853 107.59 31.6291C107.866 31.8928 108.142 32.1594 108.417 32.4295C108.413 32.0712 108.409 31.713 108.405 31.3548C108.686 31.2055 108.967 31.0598 109.249 30.9169C108.92 30.7357 108.592 30.5594 108.263 30.3881C108.16 30.0263 108.059 29.6653 107.957 29.3042Z" fill="#FAF1EB"/>
<path d="M102.61 27.799C102.411 28.0818 102.212 28.3654 102.013 28.6512C101.669 28.6355 101.325 28.6242 100.981 28.6178C101.186 28.9056 101.392 29.1949 101.598 29.4863C101.487 29.8225 101.376 30.1594 101.265 30.4963C101.591 30.3861 101.917 30.2795 102.243 30.1772C102.519 30.4011 102.794 30.6285 103.07 30.8581C103.066 30.5006 103.061 30.1424 103.058 29.7848C103.339 29.5951 103.62 29.4074 103.901 29.2233C103.573 29.0911 103.245 28.9632 102.916 28.8388C102.813 28.4912 102.712 28.1451 102.61 27.799Z" fill="#FAF1EB"/>
<path d="M97.2629 27.0099C97.0639 27.3169 96.8648 27.6261 96.6658 27.936C96.3218 27.9623 95.9778 27.9929 95.6338 28.027C95.8392 28.2907 96.0446 28.5551 96.2508 28.8216C96.1399 29.1713 96.029 29.521 95.9181 29.8714C96.2443 29.7222 96.5699 29.5758 96.8961 29.4336C97.1719 29.6241 97.447 29.8167 97.7227 30.0115C97.7185 29.6539 97.7149 29.2971 97.7107 28.9396C97.9921 28.7143 98.2729 28.4911 98.5544 28.2708C98.226 28.1805 97.8976 28.0945 97.5685 28.0121C97.4669 27.6766 97.3645 27.3432 97.2629 27.0099Z" fill="#FAF1EB"/>
<path d="M91.9158 26.8351C91.7168 27.1635 91.5178 27.4925 91.3187 27.8231C90.9747 27.8849 90.6307 27.9503 90.2867 28.0185C90.4921 28.2616 90.6975 28.5054 90.9037 28.7513C90.7928 29.1124 90.6819 29.4735 90.571 29.8345C90.8973 29.6526 91.2228 29.4728 91.549 29.2965C91.8248 29.4578 92.0999 29.6213 92.3757 29.7876C92.3714 29.4308 92.3678 29.074 92.3636 28.7172C92.645 28.4613 92.9258 28.2083 93.2073 27.9567C92.8789 27.9027 92.5505 27.8522 92.2214 27.8046C92.1198 27.4812 92.0182 27.1578 91.9158 26.8351Z" fill="#FAF1EB"/>
<path d="M86.0967 27.2246C85.8977 27.5715 85.6987 27.919 85.4997 28.268C85.1557 28.3611 84.8116 28.4571 84.4676 28.5552C84.673 28.7805 84.8784 29.0065 85.0846 29.2332C84.9737 29.6043 84.8628 29.9753 84.7519 30.3463C85.0782 30.1352 85.4037 29.927 85.73 29.7201C86.0057 29.8566 86.2815 29.9945 86.5566 30.1338C86.5523 29.7777 86.5488 29.4209 86.5445 29.0648C86.826 28.7826 87.1067 28.5019 87.3882 28.2232C87.0598 28.2019 86.7314 28.1827 86.4023 28.1657C86.3 27.8515 86.1984 27.5381 86.0967 27.2246Z" fill="#FAF1EB"/>
<path d="M80.7496 28.0057C80.5506 28.3654 80.3516 28.7265 80.1525 29.0875C79.8085 29.2027 79.4645 29.3199 79.1205 29.4386C79.3259 29.6519 79.5313 29.8651 79.7375 30.0791C79.6266 30.4565 79.5157 30.8346 79.4048 31.2127C79.7311 30.9817 80.0566 30.7529 80.3828 30.5254C80.6586 30.6441 80.9337 30.7635 81.2095 30.8843C81.2052 30.5283 81.2016 30.1722 81.1974 29.8161C81.4788 29.5147 81.7596 29.2148 82.0411 28.9162C81.7127 28.9177 81.3843 28.9212 81.0552 28.9262C80.9529 28.6191 80.8512 28.3128 80.7496 28.0057Z" fill="#FAF1EB"/>
<path d="M75.2298 29.126C75.0307 29.4956 74.8317 29.8652 74.6327 30.2355C74.2887 30.3663 73.9447 30.4985 73.6007 30.6314C73.8061 30.8354 74.0115 31.0401 74.2176 31.2455C74.1067 31.6279 73.9959 32.011 73.885 32.3934C74.2112 32.1489 74.5368 31.9051 74.863 31.662C75.1388 31.7679 75.4146 31.8745 75.6896 31.9819C75.6854 31.6258 75.6818 31.2697 75.6775 30.9143C75.959 30.5994 76.2397 30.2845 76.5212 29.9718C76.1928 29.9903 75.8645 30.0109 75.5354 30.0322C75.4337 29.7294 75.3314 29.4273 75.2298 29.126Z" fill="#FAF1EB"/>
<path d="M69.8826 30.4103C69.6836 30.7849 69.4846 31.1601 69.2856 31.5354C68.9416 31.6747 68.5976 31.8148 68.2536 31.9548C68.459 32.1545 68.6644 32.3549 68.8705 32.5554C68.7596 32.9406 68.6487 33.3259 68.5379 33.7111C68.8641 33.4595 69.1896 33.2079 69.5159 32.957C69.7917 33.0558 70.0674 33.1546 70.3425 33.2541C70.3382 32.898 70.3347 32.5426 70.3304 32.1865C70.6119 31.8631 70.8927 31.5404 71.1741 31.2184C70.8457 31.2476 70.5174 31.2774 70.1883 31.308C70.0866 31.008 69.985 30.7088 69.8826 30.4103Z" fill="#FAF1EB"/>
</g>
</g>
<defs>
<filter id="filter0_d_7_2131" x="-6.10352e-05" y="0" width="216.29" height="295" filterUnits="userSpaceOnUse" color-interpolation-filters="sRGB">
<feFlood flood-opacity="0" result="BackgroundImageFix"/>
<feColorMatrix in="SourceAlpha" type="matrix" values="0 0 0 0 0 0 0 0 0 0 0 0 0 0 0 0 0 0 127 0" result="hardAlpha"/>
<feOffset dy="4"/>
<feGaussianBlur stdDeviation="2"/>
<feComposite in2="hardAlpha" operator="out"/>
<feColorMatrix type="matrix" values="0 0 0 0 0 0 0 0 0 0 0 0 0 0 0 0 0 0 0.25 0"/>
<feBlend mode="normal" in2="BackgroundImageFix" result="effect1_dropShadow_7_2131"/>
<feBlend mode="normal" in="SourceGraphic" in2="effect1_dropShadow_7_2131" result="shape"/>
</filter>
</defs>
</svg>
